<?xml version="1.0" encoding="UTF-8"?>
<svg id="Layer_2" data-name="Layer 2" xmlns="http://www.w3.org/2000/svg" viewBox="0 0 237.5 237.5">
  <defs>
    <style>
      .cls-1 {
        fill: #1a1a1a;
        stroke-width: 2px;
      }

      .cls-1, .cls-2 {
        stroke: #1a1a1a;
        stroke-miterlimit: 10;
      }

      .cls-2 {
        fill: #f9ac3c;
        stroke-width: 3px;
      }
    </style>
  </defs>
  <g id="light">
    <rect id="square" class="cls-1" x="11.5" y="11.5" width="225" height="225"/>
    <rect id="square-2" data-name="square" class="cls-2" x="1.5" y="1.5" width="225" height="225"/>
    <polygon id="sun" class="cls-1" points="114 44.87 121.2 63.95 133.48 47.67 135.01 68.01 151.37 55.85 147.11 75.79 166.24 68.73 156.54 86.66 176.88 85.28 162.52 99.75 182.42 104.16 164.56 114 182.42 123.84 162.52 128.25 176.88 142.72 156.54 141.34 166.24 159.27 147.11 152.21 151.37 172.15 135.01 159.99 133.48 180.33 121.2 164.05 114 183.13 106.8 164.05 94.52 180.33 92.99 159.99 76.63 172.15 80.89 152.21 61.76 159.27 71.46 141.34 51.12 142.72 65.48 128.25 45.58 123.84 63.44 114 45.58 104.16 65.48 99.75 51.12 85.28 71.46 86.66 61.76 68.73 80.89 75.79 76.63 55.85 92.99 68.01 94.52 47.67 106.8 63.95 114 44.87"/>
  </g>
</svg>